<svg width="197" height="184" viewBox="0 0 197 184" fill="none" xmlns="http://www.w3.org/2000/svg">
<path d="M133.977 77.1395C129.766 65.9618 123.628 55.6095 115.839 46.5536C102.361 30.9514 84.6381 20.875 70.6875 20.875C69.858 20.8756 69.0396 21.066 68.295 21.4316C67.5504 21.7972 66.8993 22.3283 66.3916 22.9843C65.8839 23.6403 65.533 24.4038 65.3657 25.2162C65.1985 26.0287 65.2193 26.8687 65.4267 27.6719C70.1404 45.6836 60.3698 60.6605 50.0284 76.5142C41.4609 89.6458 32.625 103.209 32.625 118.75C32.625 148.731 57.019 173.125 87 173.125C116.981 173.125 141.375 148.731 141.375 118.75C141.375 104.035 138.887 90.0366 133.977 77.1395ZM97.9871 152.289C94.4766 156.027 90.0756 156.812 87 156.812C83.9244 156.812 79.5234 156.027 76.0129 152.289C72.5023 148.551 70.6875 142.621 70.6875 135.062C70.6875 126.519 73.6849 120.014 76.5804 113.727C78.2626 110.077 79.9788 106.363 80.9984 102.387C81.1066 101.954 81.3196 101.555 81.6185 101.224C81.9174 100.893 82.293 100.641 82.7124 100.489C83.1317 100.338 83.5819 100.292 84.0232 100.356C84.4645 100.419 84.8834 100.59 85.243 100.854C88.3513 103.259 91.115 106.078 93.457 109.234C99.632 117.391 103.312 127.049 103.312 135.062C103.312 142.621 101.471 148.578 97.9871 152.289Z" fill="#6A778A"/>
<path d="M156.5 46.1307V31.6337C156.5 29.1643 154.539 27.1041 152.07 27.0669C151.474 27.0583 150.881 27.1683 150.328 27.3906C149.774 27.6128 149.27 27.9428 148.844 28.3615C148.419 28.7801 148.081 29.279 147.851 29.8293C147.62 30.3796 147.501 30.9702 147.5 31.5669V46.1307C147.5 46.2176 147.48 46.3032 147.441 46.3809C147.402 46.4586 147.346 46.5263 147.276 46.5786C146.296 47.3236 145.501 48.2854 144.955 49.3888C144.408 50.4921 144.124 51.707 144.125 52.9384C144.125 55.0269 144.955 57.03 146.432 58.5068C147.908 59.9837 149.911 60.8134 152 60.8134C154.089 60.8134 156.092 59.9837 157.568 58.5068C159.045 57.03 159.875 55.0269 159.875 52.9384C159.876 51.707 159.592 50.4921 159.045 49.3888C158.499 48.2854 157.704 47.3236 156.724 46.5786C156.654 46.5263 156.598 46.4586 156.559 46.3809C156.52 46.3032 156.5 46.2176 156.5 46.1307ZM151.864 56.3134C151.134 56.2832 150.433 56.0166 149.867 55.5537C149.301 55.0908 148.9 54.4566 148.726 53.7465C148.552 53.0365 148.612 52.2889 148.899 51.6165C149.186 50.944 149.684 50.3829 150.317 50.0176C150.488 49.9189 150.63 49.7771 150.729 49.6063C150.828 49.4355 150.88 49.2417 150.88 49.0445V33.845C150.88 33.2396 151.345 32.72 151.951 32.6898C152.102 32.6831 152.254 32.7073 152.396 32.7607C152.538 32.8142 152.668 32.8959 152.778 33.0009C152.887 33.1058 152.975 33.232 153.034 33.3716C153.094 33.5112 153.125 33.6615 153.125 33.8134V49.0416C153.126 49.2409 153.18 49.4363 153.281 49.6083C153.381 49.7803 153.525 49.9229 153.698 50.0218C154.351 50.4003 154.858 50.9865 155.138 51.6869C155.418 52.3873 155.456 53.1614 155.245 53.8857C155.034 54.6099 154.586 55.2426 153.973 55.6827C153.361 56.1227 152.618 56.3448 151.864 56.3134Z" fill="#780000"/>
<path d="M152 4L190.971 71.5H113.029L152 4Z" stroke="#780000" stroke-width="8" stroke-linejoin="round"/>
</svg>
