<svg width="284" height="296" viewBox="0 0 284 296" fill="none" xmlns="http://www.w3.org/2000/svg">
<mask id="path-1-outside-1_5001_19691" maskUnits="userSpaceOnUse" x="95.5859" y="85" width="107" height="116" fill="black">
<rect fill="white" x="95.5859" y="85" width="107" height="116"/>
<path d="M97.1553 148.587L97.3018 118.484V87.9424C97.3994 87.8936 97.8633 87.8691 98.6934 87.8691H101.403C102.429 87.8691 103.21 87.8203 103.747 87.7227L112.829 87.3564C115.173 87.2588 116.979 87.21 118.249 87.21H129.895L151.428 86.6973C154.357 86.6973 157.58 86.8193 161.096 87.0635H161.608C163.269 86.9658 164.318 86.917 164.758 86.917C174.523 86.917 182.873 90.0176 189.807 96.2188C193.176 99.1973 195.837 103.03 197.79 107.718C199.743 112.405 200.72 117.264 200.72 122.293C200.72 127.273 200.207 131.521 199.182 135.037C198.156 138.553 196.838 141.531 195.227 143.973C188.781 153.836 176.306 159.598 157.8 161.258L141.979 161.917C141.491 173.636 141.247 182.742 141.247 189.236L141.32 191.507V197.439C141.125 198.123 140.759 198.587 140.222 198.831L98.4004 199.49C97.5703 197.146 97.1553 193.387 97.1553 188.211V148.587ZM161.242 117.166C159.289 112.039 154.113 109.305 145.715 108.963C144.494 108.914 142.81 108.89 140.661 108.89C140.075 108.89 139.709 116.092 139.562 130.496L139.416 135.989L139.636 140.384C145.642 140.286 150.915 139.017 155.456 136.575C160.046 134.134 162.341 129.69 162.341 123.245C162.341 120.511 161.975 118.484 161.242 117.166Z"/>
</mask>
<path d="M97.1553 148.587L97.3018 118.484V87.9424C97.3994 87.8936 97.8633 87.8691 98.6934 87.8691H101.403C102.429 87.8691 103.21 87.8203 103.747 87.7227L112.829 87.3564C115.173 87.2588 116.979 87.21 118.249 87.21H129.895L151.428 86.6973C154.357 86.6973 157.58 86.8193 161.096 87.0635H161.608C163.269 86.9658 164.318 86.917 164.758 86.917C174.523 86.917 182.873 90.0176 189.807 96.2188C193.176 99.1973 195.837 103.03 197.79 107.718C199.743 112.405 200.72 117.264 200.72 122.293C200.72 127.273 200.207 131.521 199.182 135.037C198.156 138.553 196.838 141.531 195.227 143.973C188.781 153.836 176.306 159.598 157.8 161.258L141.979 161.917C141.491 173.636 141.247 182.742 141.247 189.236L141.32 191.507V197.439C141.125 198.123 140.759 198.587 140.222 198.831L98.4004 199.49C97.5703 197.146 97.1553 193.387 97.1553 188.211V148.587ZM161.242 117.166C159.289 112.039 154.113 109.305 145.715 108.963C144.494 108.914 142.81 108.89 140.661 108.89C140.075 108.89 139.709 116.092 139.562 130.496L139.416 135.989L139.636 140.384C145.642 140.286 150.915 139.017 155.456 136.575C160.046 134.134 162.341 129.69 162.341 123.245C162.341 120.511 161.975 118.484 161.242 117.166Z" fill="#003049"/>
<path d="M97.1553 148.587L96.1553 148.582V148.587H97.1553ZM97.3018 118.484L98.3018 118.489V118.484H97.3018ZM97.3018 87.9424L96.8545 87.048L96.3018 87.3243V87.9424H97.3018ZM103.747 87.7227L103.707 86.7235L103.637 86.7263L103.568 86.7388L103.747 87.7227ZM112.829 87.3564L112.869 88.3556L112.871 88.3556L112.829 87.3564ZM129.895 87.21V88.21H129.906L129.918 88.2097L129.895 87.21ZM151.428 86.6973V85.6973H151.416L151.404 85.6975L151.428 86.6973ZM161.096 87.0635L161.026 88.0611L161.061 88.0635H161.096V87.0635ZM161.608 87.0635V88.0635H161.638L161.667 88.0618L161.608 87.0635ZM189.807 96.2188L189.14 96.9641L189.144 96.968L189.807 96.2188ZM195.227 143.973L194.392 143.422L194.389 143.426L195.227 143.973ZM157.8 161.258L157.841 162.257L157.865 162.256L157.889 162.254L157.8 161.258ZM141.979 161.917L141.938 160.918L141.019 160.956L140.98 161.875L141.979 161.917ZM141.247 189.236H140.247V189.252L140.248 189.269L141.247 189.236ZM141.32 191.507H142.32V191.491L142.32 191.475L141.32 191.507ZM141.32 197.439L142.282 197.714L142.32 197.58V197.439H141.32ZM140.222 198.831L140.237 199.831L140.446 199.828L140.635 199.741L140.222 198.831ZM98.4004 199.49L97.4578 199.824L97.6977 200.501L98.4162 200.49L98.4004 199.49ZM161.242 117.166L160.308 117.522L160.333 117.589L160.368 117.652L161.242 117.166ZM145.715 108.963L145.756 107.964L145.755 107.964L145.715 108.963ZM139.562 130.496L140.562 130.523L140.562 130.515L140.562 130.506L139.562 130.496ZM139.416 135.989L138.416 135.963L138.415 136.001L138.417 136.039L139.416 135.989ZM139.636 140.384L138.637 140.434L138.685 141.399L139.652 141.384L139.636 140.384ZM155.456 136.575L154.986 135.692L154.983 135.694L155.456 136.575ZM98.1553 148.592L98.3017 118.489L96.3018 118.48L96.1553 148.582L98.1553 148.592ZM98.3018 118.484V87.9424H96.3018V118.484H98.3018ZM97.749 88.8368C97.654 88.8843 97.5801 88.8997 97.5758 88.9007C97.5592 88.9044 97.5559 88.9042 97.573 88.9019C97.6068 88.8975 97.6712 88.8916 97.7755 88.8861C97.9814 88.8752 98.2845 88.8691 98.6934 88.8691V86.8691C98.2721 86.8691 97.9283 86.8753 97.6703 86.8888C97.5427 86.8956 97.4209 86.9048 97.3143 86.9187C97.2555 86.9264 97.0489 86.9508 96.8545 87.048L97.749 88.8368ZM98.6934 88.8691H101.403V86.8691H98.6934V88.8691ZM101.403 88.8691C102.446 88.8691 103.299 88.8205 103.926 88.7065L103.568 86.7388C103.121 86.8201 102.411 86.8691 101.403 86.8691V88.8691ZM103.787 88.7218L112.869 88.3556L112.789 86.3573L103.707 86.7235L103.787 88.7218ZM112.871 88.3556C115.21 88.2581 117 88.21 118.249 88.21V86.21C116.959 86.21 115.136 86.2595 112.787 86.3573L112.871 88.3556ZM118.249 88.21H129.895V86.21H118.249V88.21ZM129.918 88.2097L151.452 87.697L151.404 85.6975L129.871 86.2102L129.918 88.2097ZM151.428 87.6973C154.33 87.6973 157.529 87.8182 161.026 88.0611L161.165 86.0659C157.631 85.8204 154.385 85.6973 151.428 85.6973V87.6973ZM161.096 88.0635H161.608V86.0635H161.096V88.0635ZM161.667 88.0618C163.337 87.9635 164.354 87.917 164.758 87.917V85.917C164.283 85.917 163.2 85.9681 161.55 86.0652L161.667 88.0618ZM164.758 87.917C174.291 87.917 182.399 90.9357 189.14 96.9641L190.473 95.4734C183.347 89.0995 174.756 85.917 164.758 85.917V87.917ZM189.144 96.968C192.386 99.834 194.964 103.536 196.867 108.102L198.713 107.333C196.709 102.524 193.965 98.5606 190.469 95.4695L189.144 96.968ZM196.867 108.102C198.77 112.669 199.72 117.397 199.72 122.293H201.72C201.72 117.13 200.717 112.141 198.713 107.333L196.867 108.102ZM199.72 122.293C199.72 127.21 199.213 131.358 198.222 134.757L200.142 135.317C201.201 131.684 201.72 127.337 201.72 122.293H199.72ZM198.222 134.757C197.218 138.2 195.936 141.082 194.392 143.422L196.061 144.523C197.739 141.981 199.095 138.906 200.142 135.317L198.222 134.757ZM194.389 143.426C188.189 152.914 176.088 158.613 157.71 160.262L157.889 162.254C176.523 160.582 189.373 154.758 196.064 144.52L194.389 143.426ZM157.758 160.259L141.938 160.918L142.021 162.916L157.841 162.257L157.758 160.259ZM140.98 161.875C140.492 173.599 140.247 182.721 140.247 189.236H142.247C142.247 182.763 142.491 173.673 142.979 161.959L140.98 161.875ZM140.248 189.269L140.321 191.539L142.32 191.475L142.247 189.204L140.248 189.269ZM140.32 191.507V197.439H142.32V191.507H140.32ZM140.359 197.165C140.226 197.63 140.023 197.823 139.808 197.921L140.635 199.741C141.494 199.351 142.024 198.616 142.282 197.714L140.359 197.165ZM140.206 197.831L98.3846 198.49L98.4162 200.49L140.237 199.831L140.206 197.831ZM99.343 199.156C98.5733 196.983 98.1553 193.369 98.1553 188.211H96.1553C96.1553 193.405 96.5673 197.31 97.4578 199.824L99.343 199.156ZM98.1553 188.211V148.587H96.1553V188.211H98.1553ZM162.177 116.81C160.011 111.126 154.312 108.312 145.756 107.964L145.674 109.962C153.915 110.297 158.567 112.952 160.308 117.522L162.177 116.81ZM145.755 107.964C144.514 107.914 142.815 107.89 140.661 107.89V109.89C142.805 109.89 144.474 109.914 145.675 109.962L145.755 107.964ZM140.661 107.89C140.072 107.89 139.776 108.331 139.704 108.447C139.599 108.616 139.535 108.801 139.493 108.944C139.404 109.246 139.333 109.646 139.272 110.109C139.147 111.051 139.04 112.434 138.948 114.24C138.764 117.863 138.636 123.281 138.563 130.486L140.562 130.506C140.636 123.307 140.764 117.922 140.946 114.342C141.037 112.548 141.141 111.23 141.254 110.371C141.312 109.934 141.367 109.659 141.411 109.51C141.435 109.428 141.439 109.444 141.404 109.501C141.402 109.505 141.177 109.89 140.661 109.89V107.89ZM138.563 130.469L138.416 135.963L140.416 136.016L140.562 130.523L138.563 130.469ZM138.417 136.039L138.637 140.434L140.634 140.334L140.415 135.939L138.417 136.039ZM139.652 141.384C145.791 141.284 151.226 139.985 155.93 137.456L154.983 135.694C150.604 138.049 145.492 139.288 139.619 139.384L139.652 141.384ZM155.926 137.458C160.925 134.799 163.341 129.955 163.341 123.245H161.341C161.341 129.426 159.166 133.469 154.986 135.692L155.926 137.458ZM163.341 123.245C163.341 120.459 162.974 118.224 162.116 116.68L160.368 117.652C160.975 118.745 161.341 120.563 161.341 123.245H163.341Z" fill="#003049" mask="url(#path-1-outside-1_5001_19691)"/>
<rect x="18" y="18" width="248" height="260" stroke="#003049" stroke-width="36" stroke-linejoin="round"/>
</svg>
